<svg id="svg" version="1.1" xmlns="http://www.w3.org/2000/svg" xmlns:xlink="http://www.w3.org/1999/xlink" width="400" height="485.33333333333337" viewBox="0, 0, 400,485.33333333333337"><g id="svgg"><path id="path0" d="M131.101 280.300 L 131.000 467.000 152.288 467.000 L 173.576 467.000 173.390 431.000 C 173.194 393.019,172.801 200.590,172.801 142.198 L 172.800 107.795 171.594 107.261 C 170.930 106.968,170.125 106.689,169.805 106.642 C 169.485 106.595,169.098 106.431,168.945 106.278 C 168.792 106.125,168.239 106.000,167.717 106.000 C 167.195 106.000,166.100 105.672,165.284 105.272 C 164.468 104.871,163.035 104.302,162.100 104.008 C 161.165 103.713,160.400 103.366,160.399 103.236 C 160.399 103.106,159.845 102.961,159.168 102.914 C 158.491 102.866,157.413 102.566,156.773 102.246 C 156.132 101.927,155.021 101.538,154.304 101.382 C 153.587 101.227,152.905 100.952,152.790 100.771 C 152.674 100.591,151.954 100.334,151.190 100.200 C 150.425 100.067,149.740 99.786,149.666 99.576 C 149.592 99.367,149.388 99.284,149.212 99.393 C 148.815 99.638,146.400 98.824,146.400 98.446 C 146.400 98.294,145.876 98.130,145.236 98.081 C 144.595 98.033,143.290 97.638,142.336 97.205 C 141.381 96.772,140.274 96.414,139.876 96.409 C 139.432 96.403,139.263 96.222,139.438 95.938 C 139.613 95.655,139.548 95.585,139.270 95.757 C 139.021 95.911,138.481 95.857,138.070 95.638 C 137.660 95.418,136.891 95.149,136.362 95.040 C 133.848 94.521,133.431 94.391,133.049 94.009 C 132.824 93.784,132.316 93.600,131.921 93.600 C 131.230 93.600,131.198 100.900,131.101 280.300 M378.591 189.600 C 378.591 207.970,378.640 215.485,378.700 206.300 C 378.760 197.115,378.760 182.085,378.700 172.900 C 378.640 163.715,378.591 171.230,378.591 189.600 M83.200 187.120 L 83.399 200.200 83.505 187.426 C 83.564 180.400,83.474 174.514,83.306 174.345 C 83.138 174.177,83.090 179.925,83.200 187.120 M36.093 178.155 C 35.831 178.730,35.440 179.200,35.223 179.200 C 35.006 179.200,34.638 179.556,34.405 179.991 C 34.080 180.598,34.100 180.731,34.491 180.564 C 35.273 180.228,36.883 178.050,36.717 177.552 C 36.636 177.309,36.355 177.580,36.093 178.155 M31.876 183.374 C 31.447 183.699,31.317 184.025,31.556 184.173 C 31.778 184.310,32.155 184.057,32.394 183.611 C 32.901 182.663,32.847 182.638,31.876 183.374 M25.788 191.122 C 25.575 191.275,25.343 191.760,25.273 192.200 C 25.158 192.925,25.208 192.914,25.814 192.074 C 26.497 191.127,26.484 190.624,25.788 191.122 M23.800 193.600 C 23.402 194.040,23.278 194.400,23.524 194.400 C 23.770 194.400,24.165 194.040,24.400 193.600 C 24.635 193.160,24.760 192.800,24.676 192.800 C 24.592 192.800,24.198 193.160,23.800 193.600 M21.879 195.757 C 21.715 196.174,21.675 196.609,21.791 196.724 C 22.155 197.089,22.476 196.491,22.324 195.731 C 22.183 195.035,22.162 195.036,21.879 195.757 M10.998 338.200 C 10.998 408.380,11.044 437.150,11.100 402.132 C 11.156 367.115,11.156 309.695,11.100 274.532 C 11.044 239.370,10.998 268.020,10.998 338.200 M83.793 324.400 C 83.793 347.390,83.841 356.795,83.900 345.300 C 83.959 333.805,83.959 314.995,83.900 303.500 C 83.841 292.005,83.793 301.410,83.793 324.400 M378.590 333.600 C 378.590 350.210,378.639 357.005,378.700 348.700 C 378.760 340.395,378.760 326.805,378.700 318.500 C 378.639 310.195,378.590 316.990,378.590 333.600 M84.187 444.000 C 84.187 456.650,84.238 461.825,84.300 455.500 C 84.362 449.175,84.362 438.825,84.300 432.500 C 84.238 426.175,84.187 431.350,84.187 444.000 M18.705 467.083 C 19.202 467.179,19.922 467.175,20.305 467.075 C 20.687 466.975,20.280 466.896,19.400 466.901 C 18.520 466.905,18.207 466.987,18.705 467.083 M95.528 467.500 C 101.759 467.562,111.839 467.562,117.928 467.500 C 124.018 467.438,118.920 467.387,106.600 467.387 C 94.280 467.387,89.298 467.438,95.528 467.500 M233.305 467.487 C 233.914 467.579,234.814 467.577,235.305 467.482 C 235.797 467.387,235.300 467.311,234.200 467.314 C 233.100 467.317,232.697 467.395,233.305 467.487 M241.322 467.899 C 243.699 467.970,247.479 467.969,249.722 467.898 C 251.965 467.827,250.020 467.769,245.400 467.769 C 240.780 467.770,238.945 467.828,241.322 467.899 " stroke="none" fill="#83bbd3" fill-rule="evenodd"></path><path id="path1" d="M44.788 167.693 C 44.041 168.632,43.288 169.460,43.115 169.533 C 42.942 169.607,42.800 169.932,42.800 170.257 C 42.800 170.582,42.658 170.760,42.485 170.652 C 42.312 170.545,41.943 170.971,41.665 171.598 C 41.387 172.225,40.287 173.640,39.219 174.741 C 38.152 175.843,37.381 176.847,37.506 176.972 C 37.631 177.098,37.523 177.200,37.267 177.200 C 37.010 177.200,36.798 177.425,36.795 177.700 C 36.792 177.975,36.117 178.938,35.295 179.841 C 34.473 180.743,33.530 181.901,33.200 182.414 C 32.870 182.927,32.105 183.847,31.500 184.460 C 30.895 185.072,30.400 185.765,30.400 185.999 C 30.400 186.233,30.130 186.529,29.800 186.655 C 29.470 186.782,29.200 187.096,29.200 187.354 C 29.200 187.611,28.885 188.126,28.500 188.497 C 27.299 189.656,26.597 190.561,26.028 191.686 C 25.726 192.284,25.327 192.678,25.140 192.563 C 24.953 192.447,24.800 192.549,24.800 192.790 C 24.800 193.030,24.260 193.755,23.600 194.400 C 22.940 195.045,22.400 195.751,22.400 195.968 C 22.400 196.186,21.950 196.814,21.400 197.364 C 20.850 197.914,20.399 198.237,20.399 198.082 C 20.398 197.927,20.024 198.411,19.569 199.158 C 19.114 199.905,18.530 200.740,18.271 201.014 C 18.012 201.287,17.440 202.011,17.000 202.622 C 15.011 205.382,13.096 207.600,12.699 207.600 C 12.461 207.600,12.383 207.717,12.526 207.859 C 12.669 208.002,12.428 208.429,11.990 208.808 C 11.164 209.525,10.676 465.643,11.499 466.456 C 11.665 466.619,19.647 466.866,29.239 467.006 L 46.678 467.259 46.970 389.494 C 47.271 309.546,46.923 166.840,46.425 166.293 C 46.271 166.124,45.534 166.754,44.788 167.693 M83.396 269.000 C 83.396 307.060,83.443 322.571,83.500 303.468 C 83.557 284.366,83.557 253.226,83.500 234.268 C 83.443 215.311,83.396 230.940,83.396 269.000 M83.696 416.500 C 83.643 444.385,83.735 467.200,83.900 467.200 C 84.171 467.200,84.170 432.063,83.895 384.000 C 83.838 373.990,83.749 388.615,83.696 416.500 M138.274 467.099 C 142.055 467.165,148.355 467.165,152.274 467.099 C 156.193 467.034,153.100 466.980,145.400 466.980 C 137.700 466.980,134.493 467.034,138.274 467.099 M299.201 467.500 C 299.201 467.962,302.181 468.059,303.249 467.631 C 304.009 467.327,303.697 467.246,301.700 467.225 C 300.325 467.211,299.200 467.335,299.201 467.500 " stroke="none" fill="#94c4db" fill-rule="evenodd"></path><path id="path2" d="M228.555 13.061 C 226.380 15.404,223.520 18.439,222.200 19.806 C 219.976 22.108,218.615 23.629,213.465 29.568 C 212.401 30.796,210.781 32.618,209.865 33.618 C 208.949 34.618,207.300 36.478,206.200 37.753 C 205.100 39.027,203.750 40.574,203.200 41.191 C 201.796 42.766,198.073 46.993,195.795 49.600 C 194.737 50.810,193.765 51.890,193.635 52.000 C 193.505 52.110,192.049 53.806,190.399 55.768 C 188.750 57.731,186.770 60.004,186.000 60.819 C 184.221 62.704,181.846 65.373,179.800 67.788 C 177.801 70.148,175.223 73.039,174.290 73.970 C 173.642 74.616,173.557 76.101,173.325 90.969 C 173.081 106.517,173.036 107.250,172.334 107.067 C 171.930 106.961,171.700 107.038,171.823 107.237 C 171.946 107.437,172.278 107.600,172.560 107.600 C 173.134 107.600,173.385 155.486,173.864 356.310 L 174.128 467.220 195.364 466.964 C 207.044 466.823,219.930 466.684,224.000 466.654 L 231.400 466.600 231.500 239.441 C 231.570 82.217,231.472 12.128,231.184 11.780 C 230.880 11.414,231.043 10.979,231.783 10.180 C 232.761 9.125,232.966 8.800,232.655 8.800 C 232.575 8.800,230.730 10.717,228.555 13.061 M266.000 18.534 C 266.000 18.637,266.581 18.924,267.291 19.172 C 268.001 19.419,268.406 19.457,268.191 19.256 C 267.735 18.829,266.000 18.258,266.000 18.534 M129.275 94.816 C 128.794 95.264,128.400 95.746,128.400 95.885 C 128.400 96.025,128.850 95.717,129.400 95.200 C 130.338 94.319,130.571 94.000,130.275 94.000 C 130.207 94.000,129.757 94.367,129.275 94.816 M126.206 98.043 C 125.549 98.679,125.154 99.200,125.328 99.200 C 125.501 99.200,126.219 98.661,126.922 98.002 C 127.625 97.343,128.020 96.822,127.800 96.845 C 127.580 96.868,126.863 97.407,126.206 98.043 M121.006 103.888 L 120.304 105.000 121.230 104.111 C 121.739 103.622,122.055 103.122,121.932 102.999 C 121.809 102.876,121.392 103.276,121.006 103.888 M118.400 106.600 C 117.654 107.370,117.141 108.000,117.260 108.000 C 117.380 108.000,118.126 107.370,118.919 106.600 C 119.712 105.830,120.225 105.200,120.059 105.200 C 119.893 105.200,119.146 105.830,118.400 106.600 M114.585 110.848 C 113.493 111.975,112.787 112.830,113.015 112.748 C 113.450 112.593,117.024 108.800,116.736 108.800 C 116.645 108.800,115.677 109.722,114.585 110.848 M110.815 114.881 C 109.927 115.805,109.200 116.735,109.200 116.947 C 109.200 117.160,109.245 117.255,109.300 117.159 C 109.355 117.063,110.202 116.133,111.183 115.093 C 112.164 114.052,112.846 113.200,112.698 113.200 C 112.550 113.200,111.703 113.956,110.815 114.881 M105.441 120.653 C 104.803 121.452,104.497 122.034,104.761 121.946 C 105.195 121.802,107.069 119.200,106.739 119.200 C 106.663 119.200,106.078 119.854,105.441 120.653 M98.976 127.626 C 98.287 128.345,98.080 128.744,98.477 128.592 C 99.050 128.372,100.676 126.400,100.284 126.400 C 100.210 126.400,99.621 126.952,98.976 127.626 M94.778 132.225 C 94.020 133.008,93.670 133.536,94.000 133.397 C 94.552 133.165,96.655 130.800,96.309 130.800 C 96.225 130.800,95.537 131.441,94.778 132.225 M88.000 139.724 C 87.670 139.999,86.952 140.758,86.405 141.411 C 85.736 142.212,85.965 142.083,87.105 141.019 C 88.632 139.594,89.003 139.174,88.700 139.213 C 88.645 139.220,88.330 139.450,88.000 139.724 M84.154 145.777 C 84.032 146.094,84.003 146.679,84.089 147.077 C 84.187 147.528,84.324 147.312,84.454 146.500 C 84.671 145.138,84.530 144.796,84.154 145.777 M83.701 153.800 C 83.705 154.680,83.787 154.993,83.883 154.495 C 83.979 153.998,83.975 153.278,83.875 152.895 C 83.775 152.513,83.696 152.920,83.701 153.800 M83.023 162.763 C 82.899 162.963,82.967 163.548,83.174 164.063 C 83.525 164.939,83.551 164.916,83.575 163.700 C 83.600 162.386,83.432 162.100,83.023 162.763 M82.806 166.500 C 82.811 167.228,82.886 167.285,83.200 166.800 C 83.701 166.024,83.701 165.600,83.200 165.600 C 82.980 165.600,82.803 166.005,82.806 166.500 M129.505 467.483 C 130.002 467.579,130.722 467.575,131.105 467.475 C 131.487 467.375,131.080 467.296,130.200 467.301 C 129.320 467.305,129.007 467.387,129.505 467.483 M230.800 467.600 C 230.800 468.101,231.224 468.101,232.000 467.600 C 232.485 467.286,232.428 467.211,231.700 467.206 C 231.205 467.203,230.800 467.380,230.800 467.600 M254.200 467.600 C 253.734 467.800,259.709 467.956,268.524 467.972 C 278.511 467.990,283.563 467.864,283.400 467.600 C 283.092 467.102,255.359 467.102,254.200 467.600 M304.400 467.608 C 303.949 467.906,304.123 467.982,305.100 467.917 C 305.815 467.869,306.400 467.688,306.400 467.515 C 306.400 467.074,305.120 467.133,304.400 467.608 M344.500 468.276 C 344.885 468.376,345.515 468.376,345.900 468.276 C 346.285 468.175,345.970 468.093,345.200 468.093 C 344.430 468.093,344.115 468.175,344.500 468.276 " stroke="none" fill="#449cbc" fill-rule="evenodd"></path><path id="path3" d="M46.000 165.478 C 46.000 165.677,46.221 166.061,46.490 166.330 C 46.876 166.716,46.978 198.964,46.970 317.010 L 46.960 467.200 65.316 467.200 L 83.672 467.200 83.386 320.900 C 83.228 240.435,83.028 174.477,82.942 174.327 C 82.856 174.177,81.754 173.842,80.493 173.584 C 79.232 173.325,78.014 172.963,77.788 172.780 C 77.379 172.450,76.483 172.237,73.400 171.738 C 72.520 171.595,71.710 171.346,71.600 171.184 C 71.410 170.903,70.180 170.646,66.600 170.140 C 65.720 170.015,64.802 169.753,64.560 169.558 C 64.319 169.362,63.158 169.020,61.981 168.796 C 60.804 168.573,59.700 168.168,59.527 167.895 C 59.293 167.527,59.209 167.554,59.200 168.000 C 59.191 168.440,59.105 168.469,58.877 168.110 C 58.706 167.841,57.170 167.385,55.463 167.097 C 53.757 166.809,52.480 166.454,52.626 166.308 C 52.771 166.162,52.555 166.050,52.145 166.059 C 51.735 166.068,50.950 165.961,50.400 165.822 C 48.383 165.313,46.000 165.126,46.000 165.478 M284.000 467.600 C 283.601 467.858,286.052 467.990,291.300 467.994 C 296.304 467.998,299.200 467.853,299.200 467.600 C 299.200 467.074,284.813 467.074,284.000 467.600 " stroke="none" fill="#b4d4e4" fill-rule="evenodd"></path><path id="path4" d="M233.285 8.472 C 232.807 8.661,232.772 8.752,233.170 8.772 C 233.584 8.792,233.503 9.052,232.870 9.725 L 232.001 10.650 231.901 238.625 L 231.800 466.600 242.767 466.487 C 249.918 466.414,253.878 466.518,254.147 466.787 C 254.708 467.348,283.747 467.361,283.400 466.800 C 283.238 466.538,285.996 466.400,291.376 466.400 C 296.373 466.400,299.600 466.551,299.600 466.785 C 299.600 467.015,301.723 467.139,304.900 467.095 C 313.260 466.977,327.200 467.256,327.201 467.541 C 327.202 467.683,327.910 467.808,328.775 467.819 C 329.639 467.829,330.258 467.694,330.150 467.519 C 330.041 467.343,331.358 467.203,333.076 467.206 C 334.875 467.210,335.979 467.352,335.679 467.542 C 335.359 467.746,335.859 467.883,336.978 467.900 C 337.979 467.915,338.899 467.764,339.022 467.564 C 339.292 467.128,346.000 467.068,346.000 467.502 C 346.000 467.668,348.655 467.794,351.900 467.782 C 355.145 467.771,358.295 467.892,358.900 468.053 C 359.555 468.226,360.000 468.184,360.000 467.948 C 360.000 467.731,360.192 467.671,360.426 467.816 C 361.077 468.218,368.802 468.321,369.043 467.930 C 369.160 467.741,369.415 467.686,369.610 467.806 C 370.130 468.128,377.123 468.479,377.920 468.224 C 378.544 468.024,378.609 466.576,378.709 450.612 C 378.806 435.168,378.750 433.244,378.209 433.452 C 377.691 433.651,377.600 433.141,377.600 430.043 C 377.600 427.799,377.759 426.400,378.014 426.400 C 378.292 426.400,378.413 421.995,378.384 413.000 C 378.358 405.085,378.189 399.600,377.970 399.600 C 377.745 399.600,377.600 380.288,377.600 350.400 C 377.600 316.039,377.728 301.200,378.024 301.200 C 378.257 301.200,378.368 301.065,378.272 300.900 C 377.717 299.951,377.408 115.466,377.961 115.281 C 378.488 115.103,378.546 82.800,378.019 82.800 C 377.767 82.800,377.600 81.678,377.600 79.976 C 377.600 78.196,377.748 77.244,378.000 77.400 C 378.220 77.536,378.400 77.381,378.400 77.056 C 378.400 76.731,378.510 76.179,378.645 75.828 C 378.824 75.362,378.716 75.257,378.245 75.438 C 377.463 75.738,377.320 73.270,378.041 71.923 C 378.300 71.439,378.332 70.995,378.118 70.849 C 377.901 70.701,377.888 68.575,378.087 65.600 C 378.413 60.710,378.087 58.452,377.140 59.037 C 376.953 59.153,376.800 59.037,376.800 58.781 C 376.800 58.509,376.521 58.422,376.132 58.571 C 375.765 58.712,375.360 58.686,375.232 58.514 C 374.947 58.128,371.691 56.928,369.000 56.217 C 367.900 55.926,367.180 55.661,367.400 55.627 C 368.240 55.497,364.532 54.411,363.200 54.397 C 362.430 54.389,361.361 54.045,360.825 53.633 C 360.288 53.220,359.584 52.985,359.259 53.109 C 358.901 53.247,358.773 53.167,358.935 52.905 C 359.107 52.627,358.897 52.554,358.338 52.700 C 357.691 52.870,357.557 52.793,357.803 52.395 C 358.042 52.009,357.950 51.934,357.466 52.119 C 357.100 52.260,356.800 52.201,356.800 51.987 C 356.800 51.774,356.249 51.600,355.576 51.600 C 354.872 51.600,354.456 51.432,354.597 51.205 C 354.734 50.984,354.585 50.907,354.261 51.032 C 353.942 51.154,353.560 51.059,353.413 50.821 C 353.265 50.582,352.996 50.479,352.813 50.592 C 352.073 51.050,345.431 48.596,345.799 48.001 C 345.896 47.844,345.531 47.801,344.988 47.904 C 344.445 48.008,344.000 47.909,344.000 47.684 C 344.000 47.459,343.610 47.377,343.133 47.502 C 342.495 47.668,342.322 47.579,342.482 47.164 C 342.637 46.758,342.348 46.586,341.449 46.550 C 339.979 46.492,338.922 46.255,338.572 45.906 C 338.435 45.768,338.069 45.752,337.761 45.870 C 337.452 45.989,337.200 45.894,337.200 45.661 C 337.200 45.427,336.572 45.118,335.804 44.974 C 334.981 44.820,334.513 44.540,334.665 44.294 C 334.820 44.045,334.729 43.996,334.442 44.174 C 334.177 44.338,333.360 44.187,332.627 43.840 C 331.894 43.492,330.868 43.161,330.347 43.104 C 329.826 43.047,329.173 42.786,328.895 42.524 C 328.618 42.262,327.562 41.923,326.549 41.771 C 325.241 41.575,324.353 41.133,323.488 40.248 C 322.817 39.561,322.398 39.225,322.558 39.500 C 322.737 39.810,322.610 40.000,322.224 40.000 C 321.881 40.000,321.600 39.812,321.600 39.582 C 321.600 39.353,321.375 39.213,321.100 39.271 C 320.314 39.438,316.800 38.338,316.800 37.924 C 316.800 37.720,317.008 37.681,317.262 37.838 C 317.555 38.019,317.615 37.947,317.426 37.642 C 317.201 37.278,316.994 37.273,316.575 37.621 C 316.148 37.975,315.621 37.888,314.284 37.241 C 313.329 36.778,312.244 36.400,311.874 36.400 C 311.503 36.400,311.200 36.220,311.200 36.000 C 311.200 35.780,310.763 35.600,310.229 35.600 C 309.694 35.600,309.007 35.350,308.701 35.044 C 308.296 34.639,307.946 34.598,307.417 34.894 C 307.017 35.118,306.793 35.134,306.919 34.930 C 307.135 34.582,303.749 33.326,303.100 33.513 C 302.935 33.561,302.800 33.434,302.800 33.232 C 302.800 33.030,301.855 32.556,300.700 32.179 C 299.545 31.802,298.420 31.361,298.200 31.199 C 297.980 31.037,297.080 30.774,296.200 30.615 C 295.320 30.457,294.150 30.079,293.600 29.776 C 291.848 28.811,289.426 27.844,288.600 27.780 C 288.160 27.745,286.955 27.331,285.922 26.859 C 284.889 26.386,283.956 26.000,283.848 26.000 C 283.740 26.000,283.145 25.790,282.526 25.534 C 281.907 25.277,281.310 25.034,281.200 24.993 C 278.650 24.049,278.360 23.871,278.861 23.554 C 279.261 23.301,279.188 23.211,278.580 23.206 C 278.129 23.203,277.544 23.416,277.280 23.680 C 276.907 24.053,276.800 24.001,276.800 23.447 C 276.800 23.050,276.578 22.810,276.300 22.907 C 276.025 23.002,275.141 22.851,274.336 22.571 C 273.531 22.290,272.766 22.167,272.636 22.297 C 272.506 22.427,272.400 22.313,272.400 22.043 C 272.400 21.773,272.220 21.664,272.000 21.800 C 271.780 21.936,271.600 21.857,271.600 21.624 C 271.600 21.391,271.432 21.200,271.226 21.200 C 271.020 21.200,270.345 20.990,269.726 20.734 C 269.107 20.477,268.465 20.229,268.300 20.184 C 268.135 20.138,267.955 20.064,267.900 20.019 C 267.845 19.975,267.471 19.876,267.069 19.800 C 266.667 19.724,266.037 19.530,265.669 19.369 C 265.301 19.209,264.820 19.060,264.600 19.039 C 263.835 18.965,261.600 17.803,261.600 17.479 C 261.600 17.299,261.429 17.259,261.219 17.388 C 260.768 17.667,256.251 16.267,253.326 14.941 C 252.185 14.423,250.880 14.000,250.426 14.000 C 249.972 14.000,249.600 13.820,249.600 13.600 C 249.600 13.380,249.319 13.200,248.976 13.200 C 248.633 13.200,248.438 13.063,248.541 12.895 C 248.645 12.727,248.144 12.617,247.427 12.651 C 246.491 12.695,245.931 12.455,245.439 11.800 C 245.015 11.235,244.475 10.960,244.023 11.078 C 243.580 11.194,243.065 10.943,242.711 10.437 C 242.390 9.979,242.021 9.712,241.891 9.842 C 241.424 10.310,238.800 9.146,238.794 8.469 C 238.790 8.087,238.662 7.972,238.494 8.200 C 238.165 8.648,236.800 8.853,236.800 8.456 C 236.800 8.115,234.152 8.128,233.285 8.472 M127.691 97.528 C 124.147 101.345,122.714 102.916,119.800 106.178 C 118.260 107.902,116.619 109.737,116.154 110.256 C 115.689 110.775,115.093 111.200,114.831 111.200 C 114.568 111.200,114.444 111.347,114.555 111.527 C 114.666 111.707,114.407 112.107,113.979 112.415 C 113.550 112.724,113.200 113.117,113.200 113.288 C 113.200 113.739,111.672 115.200,111.200 115.200 C 110.980 115.200,110.800 115.405,110.800 115.655 C 110.800 115.906,109.855 117.099,108.700 118.308 C 107.545 119.516,105.970 121.185,105.200 122.016 C 104.430 122.848,102.360 125.046,100.600 126.902 C 98.840 128.757,96.770 130.978,96.000 131.838 C 95.230 132.698,93.160 135.010,91.400 136.976 C 89.640 138.942,87.451 141.285,86.535 142.182 L 84.870 143.814 84.760 147.607 C 84.699 149.693,84.552 151.580,84.434 151.800 C 84.315 152.020,84.175 153.460,84.121 155.000 C 84.068 156.540,83.965 158.655,83.893 159.700 C 83.821 160.745,83.917 161.600,84.105 161.600 C 84.293 161.600,84.310 161.822,84.143 162.093 C 83.781 162.679,83.717 163.231,83.541 167.300 C 83.467 169.005,83.271 170.400,83.104 170.400 C 82.937 170.400,82.800 170.591,82.800 170.824 C 82.800 171.057,82.963 171.146,83.163 171.023 C 83.895 170.571,83.987 180.051,84.188 275.800 C 84.300 329.480,84.439 394.325,84.496 419.900 L 84.600 466.400 107.701 466.400 L 130.803 466.400 130.794 281.700 C 130.790 180.115,130.678 96.595,130.547 96.100 C 130.220 94.874,130.099 94.934,127.691 97.528 M172.980 148.400 C 172.980 156.210,173.034 159.405,173.099 155.500 C 173.165 151.595,173.165 145.205,173.099 141.300 C 173.034 137.395,172.980 140.590,172.980 148.400 M173.380 317.600 C 173.380 325.410,173.434 328.605,173.499 324.700 C 173.565 320.795,173.565 314.405,173.499 310.500 C 173.434 306.595,173.380 309.790,173.380 317.600 M173.780 430.400 C 173.780 438.210,173.834 441.405,173.899 437.500 C 173.965 433.595,173.965 427.205,173.899 423.300 C 173.834 419.395,173.780 422.590,173.780 430.400 M220.300 467.098 C 222.335 467.171,225.665 467.171,227.700 467.098 C 229.735 467.025,228.070 466.966,224.000 466.966 C 219.930 466.966,218.265 467.025,220.300 467.098 M242.321 467.499 C 244.588 467.570,248.188 467.570,250.321 467.498 C 252.455 467.426,250.600 467.368,246.200 467.368 C 241.800 467.368,240.055 467.427,242.321 467.499 " stroke="none" fill="#64abc4" fill-rule="evenodd"></path><path id="path5" d="M291.200 28.339 C 291.200 28.910,292.767 29.182,293.064 28.662 C 293.209 28.408,293.186 28.329,293.012 28.486 C 292.837 28.643,292.358 28.592,291.947 28.372 C 291.517 28.141,291.200 28.128,291.200 28.339 M378.000 79.976 C 378.000 81.089,378.180 82.000,378.400 82.000 C 378.620 82.000,378.800 81.201,378.800 80.224 C 378.800 79.247,378.620 78.336,378.400 78.200 C 378.153 78.048,378.000 78.729,378.000 79.976 M130.924 95.800 C 130.926 97.120,131.001 97.612,131.090 96.893 C 131.179 96.174,131.177 95.094,131.086 94.493 C 130.995 93.892,130.922 94.480,130.924 95.800 M377.979 136.300 C 377.968 147.465,377.936 158.444,377.910 160.697 C 377.828 167.555,378.257 165.671,378.537 157.939 C 378.959 146.290,378.860 116.000,378.400 116.000 C 378.139 116.000,377.993 123.047,377.979 136.300 M83.794 228.800 C 83.794 258.610,83.842 270.805,83.900 255.900 C 83.958 240.995,83.958 216.605,83.900 201.700 C 83.842 186.795,83.794 198.990,83.794 228.800 M172.990 219.800 C 172.989 235.420,173.039 241.868,173.100 234.129 C 173.161 226.391,173.161 213.611,173.100 205.729 C 173.039 197.848,172.990 204.180,172.990 219.800 M84.193 379.800 C 84.193 402.680,84.241 411.981,84.300 400.469 C 84.359 388.958,84.359 370.238,84.300 358.869 C 84.241 347.501,84.193 356.920,84.193 379.800 M173.393 401.600 C 173.393 424.810,173.441 434.305,173.500 422.700 C 173.559 411.095,173.559 392.105,173.500 380.500 C 173.441 368.895,173.393 378.390,173.393 401.600 M378.006 381.100 C 378.002 392.637,378.139 398.800,378.400 398.800 C 378.936 398.800,378.936 364.830,378.400 364.000 C 378.146 363.608,378.010 369.525,378.006 381.100 M378.297 426.700 C 377.885 427.518,377.962 432.800,378.385 432.800 C 378.696 432.800,378.817 431.777,378.764 429.600 C 378.690 426.508,378.618 426.060,378.297 426.700 M84.400 466.900 C 84.400 467.065,94.829 467.200,107.576 467.200 C 120.323 467.200,130.836 467.065,130.938 466.900 C 131.040 466.735,120.611 466.600,107.762 466.600 C 94.913 466.600,84.400 466.735,84.400 466.900 M166.600 466.800 L 159.800 467.029 166.476 467.115 C 170.591 467.167,173.248 467.046,173.400 466.800 C 173.536 466.580,173.592 466.438,173.524 466.485 C 173.456 466.532,170.340 466.674,166.600 466.800 M237.124 467.099 C 240.273 467.167,245.313 467.167,248.324 467.099 C 251.336 467.031,248.760 466.976,242.600 466.976 C 236.440 466.976,233.976 467.032,237.124 467.099 M312.939 467.654 C 313.468 467.961,313.802 467.958,314.119 467.641 C 314.440 467.320,314.241 467.203,313.380 467.212 C 312.346 467.223,312.291 467.277,312.939 467.654 " stroke="none" fill="#74b4cc" fill-rule="evenodd"></path><path id="path6" d="M262.622 18.035 C 262.948 18.563,264.401 19.282,264.397 18.914 C 264.395 18.741,263.945 18.392,263.396 18.137 C 262.848 17.883,262.499 17.837,262.622 18.035 M268.000 20.024 C 268.000 20.257,268.168 20.344,268.372 20.217 C 268.577 20.091,268.858 20.170,268.996 20.393 C 269.134 20.617,269.462 20.794,269.724 20.787 C 269.986 20.780,269.851 20.510,269.424 20.187 C 268.508 19.494,268.000 19.436,268.000 20.024 M296.400 30.400 C 296.400 30.901,296.824 30.901,297.600 30.400 C 298.085 30.086,298.028 30.011,297.300 30.006 C 296.805 30.003,296.400 30.180,296.400 30.400 M304.806 33.300 C 304.803 33.685,304.935 34.014,305.100 34.031 C 305.698 34.092,306.614 34.328,307.260 34.589 C 307.622 34.735,308.038 34.662,308.183 34.427 C 308.338 34.176,308.067 33.975,307.524 33.939 C 307.016 33.906,306.367 33.859,306.083 33.836 C 305.799 33.812,305.397 33.525,305.189 33.197 C 304.869 32.690,304.811 32.706,304.806 33.300 M330.400 42.800 C 330.400 43.020,330.805 43.197,331.300 43.194 C 332.028 43.189,332.085 43.114,331.600 42.800 C 330.824 42.299,330.400 42.299,330.400 42.800 M339.600 45.751 C 339.600 46.150,339.934 46.400,340.467 46.400 C 340.943 46.400,341.258 46.349,341.167 46.287 C 341.075 46.225,340.685 45.933,340.300 45.638 C 339.701 45.179,339.600 45.196,339.600 45.751 M377.704 73.899 C 377.757 74.792,377.904 75.459,378.031 75.381 C 378.341 75.189,378.217 72.884,377.878 72.544 C 377.729 72.396,377.651 73.005,377.704 73.899 M130.997 190.600 C 130.997 241.640,131.043 262.461,131.100 236.868 C 131.157 211.275,131.157 169.515,131.100 144.068 C 131.043 118.621,130.997 139.560,130.997 190.600 M377.737 160.600 C 377.739 162.360,377.809 163.030,377.893 162.089 C 377.978 161.149,377.977 159.709,377.891 158.889 C 377.805 158.070,377.736 158.840,377.737 160.600 M172.981 177.000 C 172.981 185.140,173.034 188.413,173.100 184.274 C 173.165 180.134,173.165 173.474,173.099 169.474 C 173.034 165.473,172.981 168.860,172.981 177.000 M377.336 164.533 C 377.481 164.936,377.600 178.301,377.600 194.233 C 377.600 210.165,377.735 223.200,377.900 223.200 C 378.335 223.200,377.875 164.535,377.436 164.133 C 377.223 163.937,377.181 164.102,377.336 164.533 M84.179 297.600 C 84.179 304.750,84.233 307.675,84.299 304.100 C 84.366 300.525,84.366 294.675,84.299 291.100 C 84.233 287.525,84.179 290.450,84.179 297.600 M377.790 332.000 C 377.790 349.050,377.840 356.025,377.900 347.500 C 377.960 338.975,377.960 325.025,377.900 316.500 C 377.840 307.975,377.790 314.950,377.790 332.000 M84.179 324.200 C 84.179 331.460,84.233 334.486,84.299 330.925 C 84.365 327.364,84.366 321.424,84.299 317.725 C 84.233 314.026,84.179 316.940,84.179 324.200 M173.380 345.600 C 173.380 353.410,173.434 356.605,173.499 352.700 C 173.565 348.795,173.565 342.405,173.499 338.500 C 173.434 334.595,173.380 337.790,173.380 345.600 M377.783 381.800 C 377.783 391.040,377.836 394.763,377.900 390.073 C 377.964 385.383,377.964 377.823,377.899 373.273 C 377.835 368.723,377.783 372.560,377.783 381.800 M173.775 455.000 C 173.775 460.940,173.831 463.426,173.899 460.524 C 173.967 457.622,173.967 452.762,173.899 449.724 C 173.831 446.686,173.775 449.060,173.775 455.000 M96.329 466.700 C 102.779 466.762,113.219 466.762,119.529 466.700 C 125.838 466.638,120.560 466.587,107.800 466.587 C 95.040 466.587,89.878 466.638,96.329 466.700 M233.100 466.689 C 233.815 466.778,234.985 466.778,235.700 466.689 C 236.415 466.601,235.830 466.528,234.400 466.528 C 232.970 466.528,232.385 466.601,233.100 466.689 M240.200 466.676 C 247.039 466.962,254.310 466.975,254.139 466.700 C 254.037 466.535,250.228 466.436,245.676 466.479 C 241.124 466.523,238.660 466.612,240.200 466.676 " stroke="none" fill="#69accc" fill-rule="evenodd"></path><path id="path7" d="M231.881 10.050 C 231.096 10.945,230.901 11.439,231.193 11.792 C 231.470 12.125,231.569 85.377,231.501 239.504 C 231.445 364.475,231.535 466.640,231.700 466.538 C 231.865 466.436,232.000 363.820,232.000 238.502 L 232.000 10.652 232.870 9.726 C 233.348 9.217,233.568 8.800,233.359 8.800 C 233.149 8.800,232.485 9.362,231.881 10.050 M378.144 67.200 C 378.144 69.290,378.212 70.145,378.294 69.100 C 378.376 68.055,378.376 66.345,378.294 65.300 C 378.212 64.255,378.144 65.110,378.144 67.200 M378.317 98.700 C 378.253 107.445,378.335 114.771,378.500 114.980 C 378.665 115.189,378.800 108.034,378.800 99.080 C 378.800 90.126,378.718 82.800,378.617 82.800 C 378.517 82.800,378.382 89.955,378.317 98.700 M128.853 95.800 C 127.137 97.756,127.270 98.063,129.043 96.237 C 129.836 95.420,130.400 94.667,130.296 94.563 C 130.192 94.458,129.543 95.015,128.853 95.800 M124.352 100.526 C 120.884 104.417,120.289 105.407,123.345 102.200 C 125.022 100.440,126.395 98.865,126.397 98.700 C 126.402 98.242,126.331 98.305,124.352 100.526 M117.323 108.319 C 115.976 109.794,114.945 111.073,115.033 111.163 C 115.120 111.252,115.599 110.876,116.096 110.326 C 118.875 107.253,120.018 105.885,119.902 105.769 C 119.831 105.697,118.670 106.845,117.323 108.319 M172.979 121.400 C 172.979 128.660,173.033 131.686,173.099 128.125 C 173.165 124.564,173.166 118.624,173.099 114.925 C 173.033 111.226,172.979 114.140,172.979 121.400 M112.070 114.061 C 111.558 114.688,111.243 115.200,111.370 115.200 C 111.785 115.200,113.253 113.558,113.125 113.236 C 113.056 113.064,112.581 113.435,112.070 114.061 M108.179 118.213 C 106.870 119.637,104.630 122.031,103.200 123.534 C 99.747 127.163,98.981 128.219,101.412 126.000 C 102.497 125.010,103.452 124.053,103.534 123.874 C 103.617 123.694,104.340 122.863,105.142 122.026 C 105.944 121.189,107.572 119.488,108.761 118.246 C 109.949 117.004,110.840 115.906,110.740 115.806 C 110.640 115.706,109.487 116.789,108.179 118.213 M95.808 131.500 L 94.617 133.000 95.881 132.000 C 97.132 131.010,97.843 130.000,97.287 130.000 C 97.129 130.000,96.464 130.675,95.808 131.500 M92.000 135.651 C 90.790 136.992,89.620 138.306,89.400 138.573 C 89.180 138.839,88.010 140.114,86.800 141.407 C 85.590 142.699,84.960 143.504,85.400 143.195 C 86.288 142.571,87.440 141.395,89.738 138.762 C 90.584 137.793,92.107 136.145,93.123 135.100 C 94.139 134.055,94.797 133.203,94.585 133.207 C 94.373 133.211,93.210 134.311,92.000 135.651 M84.257 147.100 C 83.912 149.185,83.938 152.085,84.300 151.862 C 84.608 151.672,84.965 145.600,84.669 145.600 C 84.579 145.600,84.393 146.275,84.257 147.100 M83.843 156.633 C 83.541 157.419,83.523 158.610,83.818 158.316 C 84.092 158.042,84.473 156.000,84.251 156.000 C 84.160 156.000,83.976 156.285,83.843 156.633 M83.074 172.141 C 82.895 172.988,82.850 173.783,82.974 173.908 C 83.427 174.360,83.650 173.645,83.526 172.140 L 83.399 170.600 83.074 172.141 M173.395 247.200 C 173.395 278.330,173.442 291.065,173.500 275.500 C 173.558 259.935,173.558 234.465,173.500 218.900 C 173.442 203.335,173.395 216.070,173.395 247.200 M377.995 224.700 C 377.874 231.921,378.055 300.589,378.196 300.729 C 378.308 300.841,378.400 283.713,378.400 262.667 C 378.400 241.620,378.310 224.400,378.200 224.400 C 378.090 224.400,377.998 224.535,377.995 224.700 M173.793 375.000 C 173.793 397.880,173.841 407.181,173.900 395.669 C 173.959 384.158,173.959 365.438,173.900 354.069 C 173.841 342.701,173.793 352.120,173.793 375.000 M378.343 399.700 C 378.264 399.975,378.295 406.140,378.411 413.400 L 378.622 426.600 378.711 412.900 C 378.793 400.270,378.739 398.314,378.343 399.700 M378.571 458.800 C 378.571 463.750,378.628 465.775,378.699 463.300 C 378.769 460.825,378.769 456.775,378.699 454.300 C 378.628 451.825,378.571 453.850,378.571 458.800 M283.381 466.770 C 283.708 467.298,299.600 467.341,299.600 466.814 C 299.600 466.542,296.774 466.400,291.376 466.400 C 286.447 466.400,283.244 466.548,283.381 466.770 M197.325 467.099 C 201.024 467.166,206.964 467.165,210.525 467.099 C 214.086 467.033,211.060 466.979,203.800 466.979 C 196.540 466.979,193.626 467.033,197.325 467.099 M305.091 467.089 C 305.801 467.177,307.061 467.179,307.891 467.092 C 308.721 467.005,308.140 466.933,306.600 466.931 C 305.060 466.929,304.381 467.000,305.091 467.089 M317.200 467.587 C 317.200 467.960,325.460 467.874,325.837 467.497 C 326.004 467.330,324.129 467.221,321.670 467.255 C 319.212 467.288,317.200 467.438,317.200 467.587 M339.000 467.600 C 338.842 467.855,340.063 468.000,342.376 468.000 C 344.525 468.000,346.000 467.837,346.000 467.600 C 346.000 467.365,344.608 467.200,342.624 467.200 C 340.767 467.200,339.136 467.380,339.000 467.600 M350.400 467.888 C 350.400 468.064,351.480 468.243,352.800 468.286 C 354.120 468.330,355.200 468.238,355.199 468.083 C 355.198 467.927,354.118 467.748,352.799 467.685 C 351.480 467.621,350.400 467.713,350.400 467.888 M357.367 468.054 C 357.249 468.244,357.703 468.400,358.376 468.400 C 359.049 468.400,359.600 468.331,359.600 468.247 C 359.600 467.907,357.566 467.731,357.367 468.054 M368.952 468.077 C 368.842 468.255,369.483 468.400,370.376 468.400 C 371.269 468.400,372.000 468.330,372.000 468.244 C 372.000 467.923,369.144 467.768,368.952 468.077 " stroke="none" fill="#5ca8c4" fill-rule="evenodd"></path><path id="path8" d="M234.786 7.817 C 234.339 8.356,234.462 8.421,235.767 8.333 C 237.093 8.244,237.181 8.175,236.553 7.716 C 235.646 7.053,235.409 7.066,234.786 7.817 M239.400 9.085 C 239.840 9.191,240.371 9.440,240.580 9.639 C 240.789 9.837,241.239 9.999,241.580 9.998 C 241.921 9.996,241.684 9.726,241.054 9.398 C 240.424 9.069,239.614 8.821,239.254 8.846 C 238.793 8.879,238.837 8.950,239.400 9.085 M246.800 12.435 C 246.800 12.636,247.115 12.823,247.500 12.851 C 247.885 12.879,248.600 12.944,249.090 12.996 C 249.579 13.048,249.881 12.932,249.762 12.738 C 249.642 12.545,249.377 12.491,249.172 12.617 C 248.968 12.744,248.575 12.707,248.300 12.535 C 247.558 12.071,246.800 12.021,246.800 12.435 M255.426 15.642 C 255.695 16.077,256.682 16.115,256.938 15.700 C 257.040 15.535,256.692 15.374,256.164 15.342 C 255.637 15.311,255.305 15.446,255.426 15.642 M257.398 16.397 C 257.542 16.630,257.872 16.788,258.130 16.746 C 258.389 16.705,259.107 16.881,259.726 17.136 C 261.121 17.711,261.200 17.711,261.200 17.133 C 261.200 16.877,261.086 16.780,260.947 16.919 C 260.808 17.058,260.343 16.983,259.912 16.753 C 258.740 16.126,257.086 15.891,257.398 16.397 M265.398 18.803 C 265.261 19.024,265.476 19.322,265.875 19.465 C 266.274 19.607,266.780 19.817,267.000 19.930 C 267.220 20.044,267.057 19.747,266.638 19.269 C 265.764 18.272,265.733 18.261,265.398 18.803 M272.399 21.751 C 272.949 22.072,273.474 22.259,273.566 22.167 C 273.814 21.919,273.514 21.730,272.400 21.433 L 271.400 21.167 272.399 21.751 M282.624 25.387 C 283.051 25.710,283.670 25.979,284.000 25.985 C 284.330 25.990,284.084 25.726,283.454 25.398 C 281.995 24.637,281.625 24.632,282.624 25.387 M286.800 26.783 C 286.800 26.997,287.160 27.365,287.600 27.600 C 288.040 27.835,288.400 27.885,288.400 27.710 C 288.400 27.535,288.040 27.168,287.600 26.893 C 287.157 26.616,286.800 26.567,286.800 26.783 M289.362 27.500 C 290.156 28.438,291.200 28.708,291.200 27.976 C 291.200 27.743,291.009 27.671,290.775 27.816 C 290.541 27.960,289.956 27.746,289.475 27.339 L 288.600 26.600 289.362 27.500 M298.172 31.154 C 298.519 31.717,299.867 31.933,299.867 31.427 C 299.867 31.172,299.437 30.928,298.911 30.884 C 298.386 30.841,298.053 30.962,298.172 31.154 M300.492 31.675 C 300.579 31.936,300.864 32.221,301.125 32.308 C 301.418 32.406,301.507 32.223,301.357 31.833 C 301.078 31.106,300.252 30.955,300.492 31.675 M308.400 34.557 C 308.400 34.864,308.674 35.220,309.009 35.348 C 309.506 35.539,309.541 35.436,309.195 34.791 C 308.699 33.864,308.400 33.776,308.400 34.557 M324.032 40.453 C 323.997 41.167,325.462 41.747,325.823 41.162 C 325.946 40.963,325.692 40.800,325.257 40.800 C 324.822 40.800,324.376 40.575,324.265 40.300 C 324.137 39.983,324.052 40.039,324.032 40.453 M328.300 42.088 C 328.795 42.327,329.200 42.669,329.200 42.849 C 329.200 43.028,329.491 43.063,329.847 42.927 C 330.589 42.642,329.116 41.617,328.000 41.641 C 327.639 41.649,327.759 41.827,328.300 42.088 M333.200 43.986 C 333.200 44.214,333.365 44.400,333.567 44.400 C 333.769 44.400,334.219 44.509,334.567 44.643 C 334.940 44.786,335.200 44.676,335.200 44.376 C 335.200 44.096,335.086 43.980,334.947 44.119 C 334.808 44.258,334.358 44.192,333.947 43.972 C 333.441 43.701,333.200 43.706,333.200 43.986 M337.362 45.662 C 337.181 45.954,337.252 46.015,337.556 45.827 C 337.819 45.664,338.281 45.735,338.582 45.985 C 338.992 46.325,339.203 46.318,339.426 45.958 C 339.615 45.653,339.555 45.581,339.262 45.762 C 339.008 45.919,338.800 45.857,338.800 45.624 C 338.800 45.054,337.720 45.083,337.362 45.662 M347.200 48.800 C 346.710 49.116,346.766 49.200,347.500 49.254 C 347.995 49.290,348.625 49.338,348.900 49.360 C 349.175 49.382,349.490 49.490,349.600 49.600 C 350.248 50.248,352.597 50.760,352.983 50.338 C 353.272 50.022,353.272 49.954,352.982 50.114 C 352.753 50.241,351.789 49.998,350.842 49.574 C 349.894 49.150,348.957 48.903,348.759 49.025 C 348.562 49.147,348.400 49.057,348.400 48.824 C 348.400 48.300,347.986 48.292,347.200 48.800 M357.828 52.355 C 357.708 52.550,357.954 52.799,358.375 52.909 C 358.911 53.049,359.076 52.943,358.927 52.555 C 358.686 51.925,358.154 51.828,357.828 52.355 M362.098 53.700 C 362.188 53.975,362.788 54.229,363.431 54.263 C 364.246 54.308,364.328 54.269,363.700 54.136 C 363.205 54.030,362.800 53.777,362.800 53.572 C 362.800 53.367,362.605 53.200,362.367 53.200 C 362.128 53.200,362.007 53.425,362.098 53.700 M377.976 73.400 C 377.955 73.620,377.879 74.114,377.805 74.498 C 377.731 74.883,377.880 75.316,378.136 75.463 C 378.391 75.609,378.467 75.581,378.303 75.401 C 378.140 75.221,378.175 74.871,378.381 74.623 C 378.611 74.346,378.612 73.948,378.383 73.587 C 378.179 73.264,377.996 73.180,377.976 73.400 M377.773 125.600 C 377.773 130.990,377.830 133.195,377.899 130.500 C 377.968 127.805,377.968 123.395,377.899 120.700 C 377.830 118.005,377.773 120.210,377.773 125.600 M377.774 145.800 C 377.775 151.520,377.831 153.804,377.899 150.876 C 377.968 147.948,377.967 143.268,377.899 140.476 C 377.830 137.684,377.774 140.080,377.774 145.800 M378.190 194.000 C 378.190 209.950,378.239 216.475,378.300 208.500 C 378.360 200.525,378.360 187.475,378.300 179.500 C 378.239 171.525,378.190 178.050,378.190 194.000 M130.997 374.800 C 130.997 425.290,131.043 445.945,131.100 420.700 C 131.157 395.455,131.157 354.145,131.100 328.900 C 131.043 303.655,130.997 324.310,130.997 374.800 M378.035 331.684 C 378.009 348.561,377.881 362.646,377.751 362.984 C 377.621 363.323,377.711 363.600,377.952 363.600 C 378.436 363.600,378.814 303.827,378.342 302.000 C 378.200 301.450,378.062 314.808,378.035 331.684 M377.600 429.933 C 377.600 432.780,377.690 433.199,378.300 433.194 C 378.842 433.189,378.878 433.110,378.461 432.846 C 378.074 432.601,377.960 431.765,378.057 429.881 C 378.131 428.439,378.058 427.125,377.896 426.962 C 377.733 426.800,377.600 428.137,377.600 429.933 M84.570 457.400 C 84.571 462.240,84.629 464.165,84.699 461.678 C 84.769 459.191,84.769 455.231,84.698 452.878 C 84.628 450.525,84.570 452.560,84.570 457.400 M220.500 467.497 C 222.205 467.572,224.995 467.572,226.700 467.497 C 228.405 467.422,227.010 467.361,223.600 467.361 C 220.190 467.361,218.795 467.422,220.500 467.497 M330.400 467.600 C 331.176 468.101,331.600 468.101,331.600 467.600 C 331.600 467.380,331.195 467.203,330.700 467.206 C 329.972 467.211,329.915 467.286,330.400 467.600 M333.105 467.483 C 333.602 467.579,334.322 467.575,334.705 467.475 C 335.087 467.375,334.680 467.296,333.800 467.301 C 332.920 467.305,332.607 467.387,333.105 467.483 " stroke="none" fill="#6cacc4" fill-rule="evenodd"></path></g></svg>